<?xml version="1.0" encoding="utf-8"?>
<!-- Generator: Adobe Illustrator 21.0.2, SVG Export Plug-In . SVG Version: 6.00 Build 0)  -->
<svg version="1.1" id="Layer_1" xmlns="http://www.w3.org/2000/svg" xmlns:xlink="http://www.w3.org/1999/xlink" x="0px" y="0px"
	 viewBox="0 0 249.1 96.7" style="enable-background:new 0 0 249.1 96.7;" xml:space="preserve">
<style type="text/css">
	.st0{fill:none;stroke:#000000;stroke-width:2;stroke-miterlimit:10;}
</style>
<g>
	<path class="st0" d="M42.2,8c0.7,0.2,1.5,0.5,2.3,0.8c0.8,0.3,1.5,0.6,2.3,0.9c0.3,0.1,0.7,0.5,1.2,1.1s1.2,1.4,2.1,2.5
		c0.9,1.1,1.5,1.9,1.7,2.3c0.2,0.4,0.5,1.3,1,2.8c0.4,0.6,0.8,1.6,1.4,3c0.6,1.4,0.9,2.5,0.9,3.1c0,1.2-0.9,2.6-2.6,4.3
		c-1.8,1.7-3.1,2.5-4.2,2.5c-0.7,0-1.1-0.2-1.4-0.6c-0.3-0.4-0.5-1-0.5-1.8c-0.3-1.3-0.5-2.4-0.7-3.4c-0.9-3.5-2.1-6.2-3.6-8
		c-1.5-1.8-3.4-2.7-5.5-2.7c-1.1,0-2.2,0.2-3.2,0.6c-1.1,0.4-2,0.9-2.9,1.7c-0.5,0.4-1.1,1-1.8,1.8c-0.7,0.8-1.6,1.9-2.7,3.2
		c-0.1,0.2-0.3,0.5-0.5,0.8c-0.2,0.3-0.5,0.7-0.8,1.2c-0.3,0.6-0.7,1.2-1.1,2c-0.5,0.8-1,1.6-1.7,2.6c-0.3,0.8-0.6,1.6-0.9,2.3
		c-0.3,0.7-0.7,1.4-1.1,2c-0.1,0.1-0.2,0.4-0.3,0.8c-0.1,0.4-0.2,0.9-0.3,1.5c-0.2,0.7-0.5,1.6-0.8,2.4c-0.3,0.9-0.6,1.8-0.9,2.9
		c-0.5,3.5-0.9,6.4-1.1,8.4c-0.2,2.1-0.3,3.4-0.3,4c0,1.4,0.1,2.8,0.4,4.2c0.2,1.4,0.6,2.8,1.1,4.2c0.4,1,0.8,1.9,1.1,2.6
		c0.4,0.7,0.7,1.2,1,1.6c0.5,0.5,1.1,0.9,1.9,1.1c0.7,0.3,1.6,0.4,2.5,0.4c1.3,0,2.5-0.2,3.7-0.7c1.2-0.5,2.3-1.1,3.3-1.9
		c0.3-0.3,0.9-0.9,1.8-1.8s2.1-2.2,3.6-3.8c0.3-0.3,0.7-0.6,1.2-1.1c0.5-0.5,1-1,1.5-1.6c0.6-0.8,1.2-1.7,1.7-2.5
		c0.5-0.8,1.1-1.7,1.6-2.4c0.7-0.9,1.4-1.5,2.3-2c0.8-0.4,1.7-0.6,2.7-0.6c1.3,0,2.3,0.3,3,0.9c0.7,0.6,1,1.5,1,2.6
		c0,0.4-0.1,0.9-0.3,1.6c-0.2,0.7-0.4,1.2-0.4,1.6c-0.1,0.6-0.2,1.3-0.3,2.2c-0.1,0.9-0.3,1.9-0.4,3.1c-0.1,1.5-0.2,2.8-0.5,3.9
		c-0.2,1.1-0.6,2.1-1,3c-0.5,1.1-1,2.9-1.3,5.3s-0.8,4.2-1.4,5.4c-0.2,0.3-0.4,0.8-0.5,1.5c-0.2,0.7-0.3,1.6-0.5,2.7
		c-0.1,0.7-0.3,1.3-0.5,1.8c-0.2,0.5-0.4,0.9-0.8,1.2c-0.3,0.2-0.6,0.4-1.1,0.6c-0.5,0.2-1.1,0.5-1.9,0.7c-0.1,0.7-0.4,1.3-0.7,1.7
		c-0.3,0.4-0.8,0.6-1.3,0.6c-0.5,0-0.8-0.2-1-0.6s-0.4-1-0.4-1.9c0-0.3,0.1-0.8,0.2-1.5c0.1-0.7,0.3-1.6,0.6-2.7
		c0.1-0.5,0.2-1.2,0.3-2.1s0.2-2,0.2-3.2c0.1-0.7,0.2-1.7,0.5-3.1c0.3-1.4,0.7-3.1,1.2-5.2l-0.6-3.2c0.1-0.4,0.2-0.8,0.3-1.3
		c0-0.2-0.1-0.4-0.2-0.5c-0.1-0.1-0.3-0.2-0.5-0.2c-1.1,0.8-2.1,1.5-2.8,2.2c-1.7,1.4-3.1,2.6-4.2,3.5c-1.1,0.9-2,1.6-2.6,2
		c-1.3,0.8-2.6,1.5-4,2.1c-1.3,0.6-2.7,0.9-4.1,1.1L19,74c-0.7,0.1-1.2,0.2-1.7,0.3c-0.7,0-1.5-0.2-2.3-0.5
		c-0.8-0.4-1.7-0.9-2.6-1.6c-0.8-0.7-1.6-1.4-2.3-2.3c-0.7-0.9-1.3-2-1.8-3.3c-0.2-0.4-0.4-1.2-0.7-2.3c-0.3-1.2-0.7-2.7-1.2-4.5
		c0.3-0.8,0.5-1.6,0.5-2.5c0.1-0.9,0-1.9-0.1-2.9l1-7.3c0.8-6.1,2.3-11.6,4.6-16.3c2.3-4.8,5.3-8.9,9-12.5c1.2-1.2,2.3-2.2,3.1-3
		c0.8-0.7,1.4-1.3,1.6-1.6c0.7-0.6,1.5-1.1,2.4-1.7c0.9-0.6,1.8-1.1,2.8-1.7c0.5-0.3,1.1-0.6,1.8-0.9c0.7-0.3,1.5-0.6,2.4-1l4.5-0.5
		l1.5,0.4L42.2,8z"/>
	<path class="st0" d="M53.1,60.7c0.2-0.2,0.5-0.5,0.7-0.9c0.2-0.4,0.5-0.8,0.9-1.2l3.8-2.6c0.5-0.6,1.2-1.3,2.1-2.1
		c0.9-0.9,2.1-1.9,3.5-3.1c0.2-0.4,0.4-0.8,0.8-1.2c0.4-0.5,0.8-0.9,1.3-1.4c0.5-0.4,0.9-0.8,1.4-1.2c0.5-0.4,0.9-0.7,1.3-1.1
		c0.5-0.5,1-1,1.4-1.5s0.9-1,1.3-1.4c0.5-0.5,1.1-0.8,1.6-1.1c0.6-0.3,1.2-0.4,1.8-0.4c0.7,0,1.3,0.1,1.6,0.3
		c0.4,0.2,0.6,0.4,0.6,0.8c-0.3,0.7-0.7,1.5-1,2.2l0.3,0.4c1.4-0.6,2.6-1,3.4-1.2c0.8-0.3,1.3-0.4,1.6-0.4c2.4,0,4.2,0.7,5.3,2.2
		c1.2,1.4,1.8,3.6,1.8,6.6c0,0.6-0.1,1.2-0.2,2c-0.1,0.7-0.3,1.6-0.6,2.4c-0.3,1-0.7,1.8-1,2.4c-0.4,0.7-0.7,1.1-1,1.4
		c0.1,0.4,0.3,0.7,0.4,0.9c0.2,0.2,0.4,0.3,0.6,0.3c0.3,0,0.5-0.1,0.8-0.2c0.3-0.2,0.6-0.4,1-0.7c0.3,0.7,0.6,1.5,1,2.2
		c0.3,0.8,0.6,1.5,1,2.3c-0.6,0.5-1.2,1-1.7,1.5c-0.6,0.5-1.1,1-1.8,1.4c-0.7,0.6-1.5,1.1-2.1,1.3c-0.7,0.3-1.3,0.4-2,0.4
		c-0.7,0-1.4-0.2-1.9-0.5c-0.5-0.4-0.9-0.9-1.2-1.5c-0.8,1.1-1.8,2.1-3,3c-1.2,0.9-2.4,1.6-3.8,2.2c-0.8,0.4-1.6,0.7-2.2,0.9
		c-0.7,0.2-1.3,0.3-1.8,0.3c-0.2,0-0.5,0.1-1,0.2c-0.5,0.1-0.9,0.2-1.1,0.2c-1.9,0-3.5-0.8-5-2.3c-1.5-1.6-2.2-3.3-2.2-5.2
		c0-0.8,0.2-1.8,0.5-3.1c0.4-1.3,0.5-2,0.5-2.3c0-0.2-0.1-0.4-0.2-0.6s-0.4-0.2-0.6-0.2c-0.2,0-0.6,0.2-1.2,0.7
		c-0.6,0.5-1.5,1.2-2.6,2.1c-0.1,0.1-0.2,0.3-0.3,0.6c-0.1,0.3-0.3,0.6-0.6,0.9c-0.3-0.7-0.6-1.5-0.9-2.3
		C53.8,62.1,53.5,61.4,53.1,60.7z M76.6,51.7c-0.2,0-0.4,0.2-0.7,0.5c-0.3,0.3-0.6,0.7-0.9,1.1c-0.5,0.7-1,1.6-1.6,2.4
		c-0.4,0.4-0.7,0.7-1.1,0.9c-0.4,0.2-0.9,0.4-1.4,0.5c-0.3,0-0.7,0.4-1,1c-0.4,0.6-0.7,1.5-1.1,2.6c-0.4,1-0.6,1.9-0.8,2.6
		c-0.2,0.7-0.2,1.3-0.2,1.8c0,0.9,0.2,1.6,0.7,2.1c0.5,0.5,1.2,0.7,2.1,0.7c1.5,0,2.9-0.4,4.1-1.2c1.3-0.8,2.4-2.1,3.5-3.7
		c0.5-0.6,1-1.2,1.5-1.8c0.3-0.2,0.5-0.5,0.6-1c0.2-0.4,0.3-1,0.5-1.6l0.9-2.8c-0.3-1-0.6-1.7-0.8-2.3c-0.3-0.6-0.5-0.9-0.8-1
		c-0.2-0.1-0.5-0.2-1.1-0.3C78.4,52,77.6,51.9,76.6,51.7z"/>
	<path class="st0" d="M148,60.6l2,4.5c-0.5,0.4-1.5,0.7-3,0.9c-1.5,0.3-3.6,0.5-6,0.7c-2.9,2.8-5.7,5.1-8.6,7
		c-2.8,1.9-5.7,3.2-8.5,4.1c-0.7,0.2-1.4,0.4-2.2,0.6c-0.5,0-1.1-0.1-1.7-0.3c-0.6-0.2-1.3-0.5-2.1-0.9c-0.8-0.5-1.4-1-1.8-1.4
		c-0.4-0.5-0.6-0.9-0.6-1.4c0-1,0.5-1.9,1.4-2.8c0.9-0.9,2.3-1.8,4.2-2.6c3.6-1.7,7.2-3.4,10.8-5.1c0.5,0,0.9,0.1,1.1,0.3
		c0.2,0.2,0.3,0.5,0.3,0.8c0,0.9-0.6,1.6-1.9,2.2c-1.3,0.6-1.9,1-1.9,1.3c0.2,0.3,0.4,0.5,0.6,0.5c0.4,0,1.4-0.6,2.8-1.9
		c1.4-1.3,2.2-2.1,2.1-2.4l-0.2-1.1l0.1-0.2c0.8-0.7,1.5-1.4,1.9-2c0.4-0.6,0.6-1.1,0.6-1.4c0-0.8-0.4-1.9-1.2-3.3
		c-0.8-1.4-2-3-3.7-4.9c-1.2-1.5-2.5-2.8-3.7-4c-1.2-1.2-2.4-2.2-3.6-3.1c-0.5-0.4-0.8-0.8-1.2-1.1c-0.3-0.4-0.6-0.7-0.8-1
		c-0.4-0.7-0.6-1.2-0.9-1.6c-0.2-0.4-0.4-0.7-0.6-0.8c-0.2-0.2-0.4-0.4-0.7-0.7c-0.3-0.3-0.6-0.6-1-1c-0.7-0.7-1.2-1.7-1.6-3
		c-0.4-1.3-0.6-2.8-0.6-4.7c0-1.2,0.2-2.4,0.5-3.6c0.3-1.2,0.8-2.2,1.5-3.1c0.1-0.2,0.2-0.4,0.3-0.7c0.1-0.3,0.2-0.6,0.3-0.9
		c0.7-1.5,2-3.2,3.8-5c1.8-1.8,4.1-3.7,7-5.6c0.4-0.2,0.9-0.5,1.4-0.8c0.6-0.3,1.2-0.7,1.9-1.3c0.4-0.3,0.8-0.6,1.3-0.9
		c0.5-0.3,1-0.5,1.7-0.7c0.9-0.4,1.9-0.7,3-1.2c1.6-0.8,3-1.5,4.1-1.9s1.9-0.6,2.4-0.6c1.1,0,1.9,0.3,2.4,1c0.5,0.7,0.8,1.6,0.8,2.8
		c0,1.4-0.1,2.5-0.3,3.3c-0.2,0.9-0.5,1.4-0.9,1.7c-3.8,3.1-6.9,5.4-9.3,6.9c-2.3,1.5-4,2.3-4.9,2.3c-0.5,0-0.8-0.1-1.1-0.4
		c-0.3-0.3-0.4-0.7-0.4-1.2c0-0.9,0.7-1.8,2.2-2.9c1.5-1.1,2.2-1.9,2.1-2.4l-0.4-0.3c-0.2,0-0.4,0-0.6,0.1c-0.2,0.1-0.4,0.2-0.7,0.4
		c-2.9,2.3-5,4.4-6.5,6.2c-1.4,1.8-2.2,3.4-2.2,4.8c0,1.1,0.2,2.2,0.6,3.3c0.4,1.1,0.9,2.2,1.6,3.4c0.5,0.8,1.3,1.8,2.3,3.1
		c1,1.3,2.3,2.8,3.8,4.5c2.1,2.4,3.7,4.3,4.9,5.7c1.1,1.3,1.8,2,1.9,2.1c0.7,0.8,1.2,1.7,1.7,2.5c0.5,0.8,0.8,1.7,0.9,2.4
		c0.2,0.6,0.3,1.4,0.3,2.3c0.1,0.9,0.1,2,0.1,3.3c0,0.8,0.1,1.2,0.3,1.3c0.2,0.1,0.6,0.2,1.1,0.2c0.2,0,0.3,0,0.5-0.1
		C147.8,60.9,147.9,60.8,148,60.6z"/>
	<path class="st0" d="M148,60.7c0.4-0.7,0.9-1.4,1.5-2.1c0.6-0.7,1.4-1.4,2.3-2.2c0.1-0.7,0.2-1.3,0.3-1.9s0.2-1.3,0.2-1.9
		c0.1-0.5,0.3-1,0.5-1.6c0.2-0.6,0.4-1.3,0.7-2c0.3-0.7,0.7-1.6,1.2-2.7c0.5-1.1,1.2-2.3,2-3.6c0.7-0.7,1.4-1.6,2.1-2.5
		c0.7-0.9,1.5-1.8,2.2-2.7c0.4-0.3,0.7-0.6,1.2-0.8c0.4-0.3,0.8-0.6,1.3-0.9c0.4-0.1,0.8-0.2,1.3-0.3s1-0.1,1.6-0.1
		c0.8,0,1.5,0.1,2,0.2c0.5,0.2,0.9,0.4,1.2,0.8c0.2,0.3,0.4,0.7,0.7,1.2c0.2,0.5,0.4,1.2,0.6,1.9c0.1,0.7,0.2,1.4,0.3,2.1
		c0-0.2-0.1-0.1-0.2,0.2c-0.1,0.4-0.3,0.9-0.5,1.7l-0.4,1.6c-0.5,1.6-1.5,3.4-3.1,5.4c-1.6,2.1-3.7,4.4-6.4,7
		c-0.2,0.2-0.4,0.5-0.6,0.9c-0.2,0.3-0.2,0.7-0.2,1.1c0,0.7,0.1,1.3,0.4,1.8c0.2,0.5,0.6,0.9,1,1.2c0.3,0.2,0.7,0.4,1.2,0.6
		c0.6,0.2,1.2,0.4,2,0.5c1.3-0.1,2.4-0.3,3.5-0.6c1-0.3,2-0.7,2.8-1.2c0.2-0.1,0.4-0.2,0.8-0.4c0.4-0.2,0.7-0.4,1.1-0.7
		c0.4,0.9,0.8,1.8,1.1,2.5c0.3,0.7,0.6,1.4,0.8,2c-1.9,1.8-3.5,3.2-5.1,4.1s-2.9,1.4-4.2,1.4c-0.5,0.3-1.1,0.6-1.8,0.7
		c-0.7,0.1-1.5,0.2-2.4,0.2c-1.2,0-2.3-0.2-3.2-0.5c-0.9-0.4-1.7-0.9-2.3-1.6c-0.3-0.3-0.7-0.8-1-1.4c-0.3-0.6-0.7-1.4-1-2.3
		c-0.3-0.7-0.6-1.2-0.8-1.6c-0.3-0.3-0.6-0.5-0.9-0.5c-0.3,0-0.6,0.1-0.9,0.4c-0.3,0.2-0.7,0.6-1.1,1.1c-0.1-0.5-0.4-1.1-0.7-1.8
		C148.9,62.7,148.5,61.8,148,60.7z M163.6,44.8c-0.7,0-1.7,0.9-2.9,2.8c-1.2,1.9-1.8,3.2-1.8,4.1c0,0.2,0,0.3,0.1,0.4
		c0.1,0.1,0.3,0.1,0.5,0.1c0.4,0,0.7-0.2,0.9-0.6c0.2-0.4,0.4-0.7,0.6-1c0.4-0.3,0.7-0.7,1-1c0.3-0.4,0.7-0.7,1-1.1
		c0.4-0.5,0.7-0.9,0.9-1.4c0.2-0.5,0.3-0.9,0.3-1.4c0-0.3-0.1-0.5-0.2-0.7C164,44.9,163.8,44.8,163.6,44.8z"/>
	<path class="st0" d="M172.5,60.7c0.4-0.7,0.9-1.4,1.5-2.1c0.6-0.7,1.4-1.4,2.3-2.2c0.1-0.7,0.2-1.3,0.3-1.9s0.2-1.3,0.2-1.9
		c0.1-0.5,0.3-1,0.5-1.6c0.2-0.6,0.4-1.3,0.7-2c0.3-0.7,0.7-1.6,1.2-2.7c0.5-1.1,1.2-2.3,2-3.6c0.7-0.7,1.4-1.6,2.1-2.5
		c0.7-0.9,1.5-1.8,2.2-2.7c0.4-0.3,0.7-0.6,1.2-0.8c0.4-0.3,0.8-0.6,1.3-0.9c0.4-0.1,0.8-0.2,1.3-0.3s1-0.1,1.6-0.1
		c0.8,0,1.5,0.1,2,0.2c0.5,0.2,0.9,0.4,1.2,0.8c0.2,0.3,0.4,0.7,0.7,1.2c0.2,0.5,0.4,1.2,0.6,1.9c0.1,0.7,0.2,1.4,0.3,2.1
		c0-0.2-0.1-0.1-0.2,0.2c-0.1,0.4-0.3,0.9-0.5,1.7l-0.4,1.6c-0.5,1.6-1.5,3.4-3.1,5.4c-1.6,2.1-3.7,4.4-6.4,7
		c-0.2,0.2-0.4,0.5-0.6,0.9c-0.2,0.3-0.2,0.7-0.2,1.1c0,0.7,0.1,1.3,0.4,1.8c0.2,0.5,0.6,0.9,1,1.2c0.3,0.2,0.7,0.4,1.2,0.6
		c0.6,0.2,1.2,0.4,2,0.5c1.3-0.1,2.4-0.3,3.5-0.6c1-0.3,2-0.7,2.8-1.2c0.2-0.1,0.4-0.2,0.8-0.4c0.4-0.2,0.7-0.4,1.1-0.7
		c0.4,0.9,0.8,1.8,1.1,2.5c0.3,0.7,0.6,1.4,0.8,2c-1.9,1.8-3.5,3.2-5.1,4.1s-2.9,1.4-4.2,1.4c-0.5,0.3-1.1,0.6-1.8,0.7
		c-0.7,0.1-1.5,0.2-2.4,0.2c-1.2,0-2.3-0.2-3.2-0.5c-0.9-0.4-1.7-0.9-2.3-1.6c-0.3-0.3-0.7-0.8-1-1.4c-0.3-0.6-0.7-1.4-1-2.3
		c-0.3-0.7-0.6-1.2-0.8-1.6c-0.3-0.3-0.6-0.5-0.9-0.5c-0.3,0-0.6,0.1-0.9,0.4c-0.3,0.2-0.7,0.6-1.1,1.1c-0.1-0.5-0.4-1.1-0.7-1.8
		C173.5,62.7,173,61.8,172.5,60.7z M188.1,44.8c-0.7,0-1.7,0.9-2.9,2.8c-1.2,1.9-1.8,3.2-1.8,4.1c0,0.2,0,0.3,0.1,0.4
		c0.1,0.1,0.3,0.1,0.5,0.1c0.4,0,0.7-0.2,0.9-0.6c0.2-0.4,0.4-0.7,0.6-1c0.4-0.3,0.7-0.7,1-1c0.3-0.4,0.7-0.7,1-1.1
		c0.4-0.5,0.7-0.9,0.9-1.4c0.2-0.5,0.3-0.9,0.3-1.4c0-0.3-0.1-0.5-0.2-0.7C188.5,44.9,188.4,44.8,188.1,44.8z"/>
	<path class="st0" d="M197.1,60.7l0.3-0.3l0.1-0.5c0.6-0.7,1.1-1.3,1.5-1.7c0.4-0.4,0.7-0.7,1-1c0.2-0.2,0.5-0.4,1.1-0.6
		c0.6-0.3,1.3-0.6,2.2-1l0.6-0.4c0.2-0.4,0.6-0.9,1.2-1.6s1.3-1.5,2.1-2.3c0.2-0.2,0.4-0.4,0.7-0.6c0.3-0.2,0.7-0.5,1-0.9
		c0.8-0.7,1.6-1.5,2.3-2.3c0.8-0.8,1.5-1.6,2.2-2.4c0.3-0.3,0.9-0.8,1.8-1.6c0.9-0.8,2.1-1.8,3.7-3.2c0.2-0.2,0.6-0.4,1.2-0.7
		c0.6-0.3,1.4-0.7,2.3-1.1c0.4-0.2,0.7-0.5,1-1c0.2-0.4,0.3-1,0.3-1.7c0.3-0.4,0.5-0.9,0.8-1.5c0.2-0.6,0.5-1.3,0.7-2.1
		c0.3-1,0.6-1.8,0.8-2.5c0.2-0.6,0.3-1.1,0.4-1.3c0.6-1.5,1.3-3.2,2.2-5.2c0.9-2,2.1-4.2,3.4-6.8c0.7-1.3,1.4-2.8,2.3-4.4
		c0.6-0.8,1.2-1.4,1.9-1.8c0.7-0.4,1.4-0.6,2.1-0.6c0.6,0,1,0.2,1.3,0.7c0.3,0.5,0.4,1.1,0.4,2c0,1.4-0.1,2.7-0.3,4
		s-0.6,2.5-1.1,3.6c-0.1,0.2-0.2,0.6-0.2,1c-0.1,0.5-0.1,1-0.2,1.7c0,0.5-0.2,0.9-0.4,1.3c-0.2,0.4-0.5,0.8-0.8,1.2
		c0,0.2,0,0.5-0.1,0.8c-0.1,0.3-0.1,0.7-0.2,1.1l-0.7,0.9c-0.1,0.2-0.1,0.4-0.1,0.7c0,0.3,0,0.6,0,0.9c0,0.2-0.1,0.6-0.3,1.1
		c-0.2,0.6-0.6,1.4-1,2.4c-0.5,1.1-0.9,2-1.2,2.6c-0.3,0.7-0.5,1.1-0.5,1.2c-0.1,0.2-0.3,0.4-0.5,0.8c-0.2,0.4-0.5,0.8-0.8,1.2
		l0.1,1.1l-3.1,11.2c0,1.2,0,2.3,0,3.2c0,0.9,0.1,1.6,0.3,2.1c0.2,0.6,0.4,1.2,0.8,2c0.4,0.8,0.9,1.7,1.4,2.6
		c0.4,0.6,0.8,1.1,1.3,1.3c0.5,0.3,1,0.4,1.6,0.4c0.6,0,1.2-0.2,1.9-0.5s1.3-0.9,1.9-1.6c0.4,0.8,0.8,1.6,1.1,2.4
		c0.3,0.7,0.6,1.4,0.9,2.1c-0.2,0.1-0.5,0.4-1,1c-0.5,0.6-1.2,1.4-2.1,2.4c-0.5,0.6-1.2,1.1-1.9,1.3c-0.8,0.3-1.7,0.4-2.8,0.4
		c-2.4,0-4.4-0.6-6-1.9c-1.5-1.3-2.6-3.2-3.2-5.7c-0.1-0.5-0.2-1-0.3-1.4s-0.2-0.7-0.3-1.1c-0.2-0.6-0.6-1.3-1.2-2
		c-0.2,0.3-0.4,0.6-0.5,0.7c-0.4,0.3-0.8,0.6-1.3,1.1c-0.5,0.5-1,1.1-1.4,1.9c-0.1,0.3-0.3,0.7-0.5,1.2c-0.3,0.5-0.6,1-1.1,1.7
		c-1,1.2-2.1,2.4-3.2,3.6s-2.1,2.4-3.2,3.6c-1.5,1.6-2.8,2.8-4.1,3.6c-1.2,0.8-2.3,1.1-3.2,1.1c-1.6,0-2.8-0.4-3.6-1.1
		s-1.2-2-1.2-3.6c0-0.7,0.3-1.8,0.8-3.1c0.6-1.4,0.8-2.4,0.8-3l-0.3-0.8L197.1,60.7z M221.6,46.7c0-0.2-0.1-0.4-0.2-0.7
		c-0.5,0.5-1.1,1.1-1.8,1.7c-0.7,0.7-1.6,1.4-2.5,2.1c-0.2,0.5-0.7,1.3-1.6,2.5c-0.8,1.1-2,2.5-3.4,4.2c-0.4,0.5-1,1.3-1.7,2.5
		c-0.7,1.2-1.6,2.6-2.6,4.4c-0.4,0.7-0.7,1.5-1.1,2.5c0,0.2,0.1,0.4,0.4,0.6c1-0.3,2.2-1.1,3.6-2.6c1.4-1.4,3.1-3.4,5.1-5.9
		c2-2.7,3.5-4.9,4.5-6.8C221.2,49.4,221.6,47.9,221.6,46.7z"/>
</g>
<g>
</g>
<g>
</g>
<g>
</g>
<g>
</g>
<g>
</g>
</svg>
